<?xml version="1.0" encoding="UTF-8"?>
<svg width="24px" height="24px" viewBox="0 0 32 32" version="1.1" xmlns="http://www.w3.org/2000/svg" xmlns:xlink="http://www.w3.org/1999/xlink">
    <!-- Generator: Sketch 52.4 (67378) - http://www.bohemiancoding.com/sketch -->
    <title>EUR</title>
    <desc>Created with Sketch.</desc>
    <defs>
        <circle id="path-1" cx="16" cy="16" r="16"></circle>
    </defs>
    <g id="Main-Pages" stroke="none" stroke-width="1" fill="none" fill-rule="evenodd">
        <g id="individuals_main-copy" transform="translate(-829.000000, -2523.000000)">
            <g id="Group-41" transform="translate(797.000000, 2394.000000)">
                <g id="EUR" transform="translate(32.000000, 129.000000)">
                    <mask id="mask-2" fill="white">
                        <use xlink:href="#path-1"></use>
                    </mask>
                    <use id="Oval-1" fill="#344B9E" xlink:href="#path-1"></use>
                    <path d="M22.0397612,25.3090402 L23.507486,25.3090402 L22.3197002,26.1777925 L22.7740146,27.584494 L21.5862288,26.714954 L20.398443,27.584494 L20.8519754,26.1777925 L19.6641897,25.3090402 L21.1319144,25.3090402 L21.5862288,23.9023386 L22.0397612,25.3090402 Z M16.4534146,4.31500478 L17.9211394,4.31500478 L16.7333536,5.18454479 L17.186886,6.59045867 L15.9998822,5.72170628 L14.8120964,6.59045867 L15.2656288,5.18454479 L14.077843,4.31500478 L15.5455678,4.31500478 L15.9998822,2.90909091 L16.4534146,4.31500478 Z M22.0397612,5.81874191 L23.507486,5.81874191 L22.3197002,6.68828192 L22.7732327,8.09419579 L21.5862288,7.22544341 L20.398443,8.09419579 L20.8519754,6.68828192 L19.6641897,5.81874191 L21.1319144,5.81874191 L21.5862288,4.41282803 L22.0397612,5.81874191 Z M16.4534146,26.8154552 L17.9211394,26.8154552 L16.7333536,27.6849952 L17.186886,29.0909091 L15.9998822,28.2213691 L14.8120964,29.0909091 L15.2656288,27.6849952 L14.077843,26.8154552 L15.5463498,26.8154552 L15.9998822,25.4087537 L16.4534146,26.8154552 Z M29.0903138,15.56523 L27.9025281,16.43477 L28.3568424,17.8406839 L27.1690566,16.9711439 L25.9812708,17.8406839 L26.4348033,16.43477 L25.2477994,15.56523 L26.7155242,15.56523 L27.1690566,14.1593161 L27.6225891,15.56523 L29.0903138,15.56523 Z M27.5958463,21.1909333 L26.4080605,22.0604733 L26.8623749,23.4663872 L25.6738071,22.5976348 L24.4860213,23.4663872 L24.9403357,22.0604733 L23.7525499,21.1909333 L25.2202747,21.1909333 L25.6738071,19.7850194 L26.1281215,21.1909333 L27.5958463,21.1909333 Z M6.77902053,9.93921162 L8.24752726,9.93921162 L7.05974146,10.8087516 L7.51327389,12.2146655 L6.3254881,11.3459131 L5.1377023,12.2146655 L5.59123473,10.8087516 L4.40344894,9.93921162 L5.87195567,9.93921162 L6.3254881,8.53329774 L6.77902053,9.93921162 Z M5.28384922,15.56523 L6.75235595,15.56523 L5.56457015,16.43477 L6.01810258,17.8406839 L4.83031679,16.9711439 L3.64253099,17.8406839 L4.09684538,16.43477 L2.90905958,15.56523 L4.37678436,15.56523 L4.83031679,14.1593161 L5.28384922,15.56523 Z M10.8682409,5.82102603 L12.3367477,5.82102603 L11.1481799,6.69056604 L11.6024943,8.09647991 L10.4147085,7.2269399 L9.22692272,8.09647991 L9.68045515,6.69056604 L8.49266936,5.82102603 L9.96117609,5.82102603 L10.4147085,4.41511215 L10.8682409,5.82102603 Z M6.77902053,21.1909333 L8.24752726,21.1909333 L7.05895951,22.0604733 L7.51249194,23.4663872 L6.3254881,22.5976348 L5.1377023,23.4663872 L5.59123473,22.0604733 L4.40344894,21.1909333 L5.87195567,21.1909333 L6.3254881,19.7842318 L6.77902053,21.1909333 Z M10.8682409,25.3090402 L12.3367477,25.3090402 L11.1481799,26.1777925 L11.6024943,27.584494 L10.4147085,26.714954 L9.22692272,27.584494 L9.68045515,26.1777925 L8.49266936,25.3090402 L9.96117609,25.3090402 L10.4147085,23.9023386 L10.8682409,25.3090402 Z M27.5958463,9.93921162 L26.4080605,10.8087516 L26.8623749,12.2146655 L25.6738071,11.3459131 L24.4860213,12.2146655 L24.9403357,10.8087516 L23.7525499,9.93921162 L25.2202747,9.93921162 L25.6738071,8.53329774 L26.1281215,9.93921162 L27.5958463,9.93921162 Z" id="Combined-Shape" fill="#FFE91A" mask="url(#mask-2)"></path>
                </g>
            </g>
        </g>
    </g>
</svg>