<?xml version="1.0" encoding="UTF-8"?>
<svg width="24px" height="24px" viewBox="0 0 24 24" version="1.1" xmlns="http://www.w3.org/2000/svg" xmlns:xlink="http://www.w3.org/1999/xlink">
    <!-- Generator: Sketch 51.1 (57501) - http://www.bohemiancoding.com/sketch -->
    <title>USD</title>
    <desc>Created with Sketch.</desc>
    <defs>
        <circle id="path-1" cx="12" cy="12" r="11"></circle>
    </defs>
    <g id="USD" stroke="none" stroke-width="1" fill="none" fill-rule="evenodd">
        <g id="USA">
            <rect id="Rectangle" fill="#D8D8D8" opacity="0" x="0" y="0" width="24" height="24"></rect>
            <mask id="mask-2" fill="white">
                <use xlink:href="#path-1"></use>
            </mask>
            <use id="Oval-1" fill="#FFFFFF" xlink:href="#path-1"></use>
            <path d="M-3.4924,0.3444 L12.3236444,0.3444 L12.3236444,12.6497333 L-3.4924,12.6497333 L-3.4924,0.3444 Z M-1.48013333,1.29088889 L-2.03257778,1.29088889 L-2.19097778,0.817644444 L-2.34888889,1.29088889 L-2.90084444,1.29088889 L-2.46671111,1.6072 L-2.62462222,2.15866667 L-2.19097778,1.80373333 L-1.75684444,2.11906667 L-1.91475556,1.6072 L-1.48013333,1.29088889 L-1.48013333,1.29088889 Z M11.5746667,11.4270222 L11.0613333,11.4270222 L10.8643111,10.9537778 L10.7059111,11.4270222 L10.1940444,11.4270222 L10.6276889,11.7428444 L10.4301778,12.2948 L10.8643111,11.9398667 L11.2984444,12.2948 L11.1400444,11.7428444 L11.5746667,11.4270222 L11.5746667,11.4270222 Z M8.97182222,11.4270222 L8.41888889,11.4270222 L8.26146667,10.9537778 L8.10306667,11.4270222 L7.55111111,11.4270222 L7.98524444,11.7428444 L7.82733333,12.2948 L8.26146667,11.9398667 L8.69511111,12.2948 L8.5372,11.7428444 L8.97182222,11.4270222 L8.97182222,11.4270222 Z M6.3284,11.4270222 L5.81604444,11.4270222 L5.65813333,10.9537778 L5.50022222,11.4270222 L4.94826667,11.4270222 L5.3824,11.7428444 L5.18488889,12.2948 L5.65813333,11.9398667 L6.09177778,12.2948 L5.93386667,11.7428444 L6.3284,11.4270222 L6.3284,11.4270222 Z M3.72506667,11.4270222 L3.21222222,11.4270222 L3.0548,10.9537778 L2.85777778,11.4270222 L2.34493333,11.4270222 L2.77906667,11.7428444 L2.58106667,12.2948 L3.0548,11.9398667 L3.48893333,12.2948 L3.29142222,11.7428444 L3.72506667,11.4270222 L3.72506667,11.4270222 Z M1.12222222,11.4270222 L0.609377778,11.4270222 L0.412355556,10.9537778 L0.254933333,11.4270222 L-0.257911111,11.4270222 L0.176222222,11.7428444 L-0.0217777778,12.2948 L0.412355556,11.9398667 L0.846,12.2948 L0.688577778,11.7428444 L1.12222222,11.4270222 L1.12222222,11.4270222 Z M-1.48013333,11.4270222 L-2.03257778,11.4270222 L-2.19097778,10.9537778 L-2.34888889,11.4270222 L-2.90084444,11.4270222 L-2.46671111,11.7428444 L-2.62462222,12.2948 L-2.19097778,11.9398667 L-1.75684444,12.2948 L-1.91475556,11.7428444 L-1.48013333,11.4270222 L-1.48013333,11.4270222 Z M10.1940444,10.1652 L9.6812,10.1652 L9.52328889,9.69195556 L9.36537778,10.1652 L8.81293333,10.1652 L9.24706667,10.4815111 L9.05004444,11.0329778 L9.52328889,10.6780444 L9.95693333,10.9928889 L9.75942222,10.4815111 L10.1940444,10.1652 L10.1940444,10.1652 Z M7.59071111,10.1652 L7.07835556,10.1652 L6.88084444,9.69195556 L6.72342222,10.1652 L6.2096,10.1652 L6.64422222,10.4815111 L6.4472,11.0329778 L6.88084444,10.6780444 L7.31448889,10.9928889 L7.15657778,10.4815111 L7.59071111,10.1652 L7.59071111,10.1652 Z M4.98737778,10.1652 L4.43493333,10.1652 L4.278,9.69195556 L4.12008889,10.1652 L3.56764444,10.1652 L4.00177778,10.4815111 L3.84337778,11.0329778 L4.278,10.6780444 L4.71115556,10.9928889 L4.55373333,10.4815111 L4.98737778,10.1652 L4.98737778,10.1652 Z M2.38453333,10.1652 L1.83257778,10.1652 L1.67466667,9.69195556 L1.51724444,10.1652 L0.9648,10.1652 L1.39844444,10.4815111 L1.24004444,11.0329778 L1.67466667,10.6780444 L2.10831111,10.9928889 L1.94991111,10.4815111 L2.38453333,10.1652 L2.38453333,10.1652 Z M-0.257911111,10.1652 L-0.770755556,10.1652 L-0.928177778,9.69195556 L-1.08657778,10.1652 L-1.63853333,10.1652 L-1.20488889,10.4815111 L-1.4024,11.0329778 L-0.928177778,10.6780444 L-0.495022222,10.9928889 L-0.692044444,10.4815111 L-0.257911111,10.1652 L-0.257911111,10.1652 Z M10.1940444,7.64106667 L9.6812,7.64106667 L9.52328889,7.16831111 L9.36537778,7.64106667 L8.81293333,7.64106667 L9.24706667,7.95688889 L9.05004444,8.46875556 L9.52328889,8.15391111 L9.95693333,8.46875556 L9.75942222,7.95688889 L10.1940444,7.64106667 L10.1940444,7.64106667 Z M7.59071111,7.64106667 L7.07835556,7.64106667 L6.88084444,7.16831111 L6.72342222,7.64106667 L6.2096,7.64106667 L6.64422222,7.95688889 L6.4472,8.46875556 L6.88084444,8.15391111 L7.31448889,8.46875556 L7.15657778,7.95688889 L7.59071111,7.64106667 L7.59071111,7.64106667 Z M4.98737778,7.64106667 L4.43493333,7.64106667 L4.278,7.16831111 L4.12008889,7.64106667 L3.56764444,7.64106667 L4.00177778,7.95688889 L3.84337778,8.46875556 L4.278,8.15391111 L4.71115556,8.46875556 L4.55373333,7.95688889 L4.98737778,7.64106667 L4.98737778,7.64106667 Z M2.38453333,7.64106667 L1.83257778,7.64106667 L1.67466667,7.16831111 L1.51724444,7.64106667 L0.9648,7.64106667 L1.39844444,7.95688889 L1.24004444,8.46875556 L1.67466667,8.15391111 L2.10831111,8.46875556 L1.94991111,7.95688889 L2.38453333,7.64106667 L2.38453333,7.64106667 Z M-0.257911111,7.64106667 L-0.770755556,7.64106667 L-0.928177778,7.16831111 L-1.08657778,7.64106667 L-1.63853333,7.64106667 L-1.20488889,7.95688889 L-1.4024,8.46875556 L-0.928177778,8.15391111 L-0.495022222,8.46875556 L-0.692044444,7.95688889 L-0.257911111,7.64106667 L-0.257911111,7.64106667 Z M10.1940444,5.11693333 L9.6812,5.11693333 L9.52328889,4.60408889 L9.36537778,5.11693333 L8.81293333,5.11693333 L9.24706667,5.43177778 L9.05004444,5.94511111 L9.52328889,5.62977778 L9.95693333,5.94511111 L9.75942222,5.43177778 L10.1940444,5.11693333 L10.1940444,5.11693333 Z M7.59071111,5.11693333 L7.07835556,5.11693333 L6.88084444,4.60408889 L6.72342222,5.11693333 L6.2096,5.11693333 L6.64422222,5.43177778 L6.4472,5.94511111 L6.88084444,5.62977778 L7.31448889,5.94511111 L7.15657778,5.43177778 L7.59071111,5.11693333 L7.59071111,5.11693333 Z M4.98737778,5.11693333 L4.43493333,5.11693333 L4.278,4.60408889 L4.12008889,5.11693333 L3.56764444,5.11693333 L4.00177778,5.43177778 L3.84337778,5.94511111 L4.278,5.62977778 L4.71115556,5.94511111 L4.55373333,5.43177778 L4.98737778,5.11693333 L4.98737778,5.11693333 Z M2.38453333,5.11693333 L1.83257778,5.11693333 L1.67466667,4.60408889 L1.51724444,5.11693333 L0.9648,5.11693333 L1.39844444,5.43177778 L1.24004444,5.94511111 L1.67466667,5.62977778 L2.10831111,5.94511111 L1.94991111,5.43177778 L2.38453333,5.11693333 L2.38453333,5.11693333 Z M-0.257911111,5.11693333 L-0.770755556,5.11693333 L-0.928177778,4.60408889 L-1.08657778,5.11693333 L-1.63853333,5.11693333 L-1.20488889,5.43177778 L-1.4024,5.94511111 L-0.928177778,5.62977778 L-0.495022222,5.94511111 L-0.692044444,5.43177778 L-0.257911111,5.11693333 L-0.257911111,5.11693333 Z M10.1940444,2.55271111 L9.6812,2.55271111 L9.52328889,2.07995556 L9.36537778,2.55271111 L8.81293333,2.55271111 L9.24706667,2.86902222 L9.05004444,3.42097778 L9.52328889,3.06604444 L9.95693333,3.42097778 L9.75942222,2.86902222 L10.1940444,2.55271111 L10.1940444,2.55271111 Z M7.59071111,2.55271111 L7.07835556,2.55271111 L6.88084444,2.07995556 L6.72342222,2.55271111 L6.2096,2.55271111 L6.64422222,2.86902222 L6.4472,3.42097778 L6.88084444,3.06604444 L7.31448889,3.42097778 L7.15657778,2.86902222 L7.59071111,2.55271111 L7.59071111,2.55271111 Z M4.98737778,2.55271111 L4.43493333,2.55271111 L4.278,2.07995556 L4.12008889,2.55271111 L3.56764444,2.55271111 L4.00177778,2.86902222 L3.84337778,3.42097778 L4.278,3.06604444 L4.71115556,3.42097778 L4.55373333,2.86902222 L4.98737778,2.55271111 L4.98737778,2.55271111 Z M2.38453333,2.55271111 L1.83257778,2.55271111 L1.67466667,2.07995556 L1.51724444,2.55271111 L0.9648,2.55271111 L1.39844444,2.86902222 L1.24004444,3.42097778 L1.67466667,3.06604444 L2.10831111,3.42097778 L1.94991111,2.86902222 L2.38453333,2.55271111 L2.38453333,2.55271111 Z M-0.257911111,2.55271111 L-0.770755556,2.55271111 L-0.928177778,2.07995556 L-1.08657778,2.55271111 L-1.63853333,2.55271111 L-1.20488889,2.86902222 L-1.4024,3.42097778 L-0.928177778,3.06604444 L-0.495022222,3.42097778 L-0.692044444,2.86902222 L-0.257911111,2.55271111 L-0.257911111,2.55271111 Z M11.5746667,8.90337778 L11.0613333,8.90337778 L10.8643111,8.43013333 L10.7059111,8.90337778 L10.1940444,8.90337778 L10.6276889,9.2192 L10.4301778,9.73106667 L10.8643111,9.41622222 L11.2984444,9.73106667 L11.1400444,9.2192 L11.5746667,8.90337778 L11.5746667,8.90337778 Z M8.97182222,8.90337778 L8.41888889,8.90337778 L8.26146667,8.43013333 L8.10306667,8.90337778 L7.55111111,8.90337778 L7.98524444,9.2192 L7.82733333,9.73106667 L8.26146667,9.41622222 L8.69511111,9.73106667 L8.5372,9.2192 L8.97182222,8.90337778 L8.97182222,8.90337778 Z M6.3284,8.90337778 L5.81604444,8.90337778 L5.65813333,8.43013333 L5.50022222,8.90337778 L4.94826667,8.90337778 L5.3824,9.2192 L5.18488889,9.73106667 L5.65813333,9.41622222 L6.09177778,9.73106667 L5.93386667,9.2192 L6.3284,8.90337778 L6.3284,8.90337778 Z M3.72506667,8.90337778 L3.21222222,8.90337778 L3.0548,8.43013333 L2.85777778,8.90337778 L2.34493333,8.90337778 L2.77906667,9.2192 L2.58106667,9.73106667 L3.0548,9.41622222 L3.48893333,9.73106667 L3.29142222,9.2192 L3.72506667,8.90337778 L3.72506667,8.90337778 Z M1.12222222,8.90337778 L0.609377778,8.90337778 L0.412355556,8.43013333 L0.254933333,8.90337778 L-0.257911111,8.90337778 L0.176222222,9.2192 L-0.0217777778,9.73106667 L0.412355556,9.41622222 L0.846,9.73106667 L0.688577778,9.2192 L1.12222222,8.90337778 L1.12222222,8.90337778 Z M-1.48013333,8.90337778 L-2.03257778,8.90337778 L-2.19097778,8.43013333 L-2.34888889,8.90337778 L-2.90084444,8.90337778 L-2.46671111,9.2192 L-2.62462222,9.73106667 L-2.19097778,9.41622222 L-1.75684444,9.73106667 L-1.91475556,9.2192 L-1.48013333,8.90337778 L-1.48013333,8.90337778 Z M11.5746667,6.37875556 L11.0613333,6.37875556 L10.8643111,5.86591111 L10.7059111,6.37875556 L10.1940444,6.37875556 L10.6276889,6.69506667 L10.4301778,7.20693333 L10.8643111,6.89208889 L11.2984444,7.20693333 L11.1400444,6.69506667 L11.5746667,6.37875556 L11.5746667,6.37875556 Z M8.97182222,6.37875556 L8.41888889,6.37875556 L8.26146667,5.86591111 L8.10306667,6.37875556 L7.55111111,6.37875556 L7.98524444,6.69506667 L7.82733333,7.20693333 L8.26146667,6.89208889 L8.69511111,7.20693333 L8.5372,6.69506667 L8.97182222,6.37875556 L8.97182222,6.37875556 Z M6.3284,6.37875556 L5.81604444,6.37875556 L5.65813333,5.86591111 L5.50022222,6.37875556 L4.94826667,6.37875556 L5.3824,6.69506667 L5.18488889,7.20693333 L5.65813333,6.89208889 L6.09177778,7.20693333 L5.93386667,6.69506667 L6.3284,6.37875556 L6.3284,6.37875556 Z M3.72506667,6.37875556 L3.21222222,6.37875556 L3.0548,5.86591111 L2.85777778,6.37875556 L2.34493333,6.37875556 L2.77906667,6.69506667 L2.58106667,7.20693333 L3.0548,6.89208889 L3.48893333,7.20693333 L3.29142222,6.69506667 L3.72506667,6.37875556 L3.72506667,6.37875556 Z M1.12222222,6.37875556 L0.609377778,6.37875556 L0.412355556,5.86591111 L0.254933333,6.37875556 L-0.257911111,6.37875556 L0.176222222,6.69506667 L-0.0217777778,7.20693333 L0.412355556,6.89208889 L0.846,7.20693333 L0.688577778,6.69506667 L1.12222222,6.37875556 L1.12222222,6.37875556 Z M-1.48013333,6.37875556 L-2.03257778,6.37875556 L-2.19097778,5.86591111 L-2.34888889,6.37875556 L-2.90084444,6.37875556 L-2.46671111,6.69506667 L-2.62462222,7.20693333 L-2.19097778,6.89208889 L-1.75684444,7.20693333 L-1.91475556,6.69506667 L-1.48013333,6.37875556 L-1.48013333,6.37875556 Z M11.5746667,3.85511111 L11.0613333,3.85511111 L10.8643111,3.34226667 L10.7059111,3.85511111 L10.1940444,3.85511111 L10.6276889,4.17044444 L10.4301778,4.68328889 L10.8643111,4.36746667 L11.2984444,4.68328889 L11.1400444,4.17044444 L11.5746667,3.85511111 L11.5746667,3.85511111 Z M8.97182222,3.85511111 L8.41888889,3.85511111 L8.26146667,3.34226667 L8.10306667,3.85511111 L7.55111111,3.85511111 L7.98524444,4.17044444 L7.82733333,4.68328889 L8.26146667,4.36746667 L8.69511111,4.68328889 L8.5372,4.17044444 L8.97182222,3.85511111 L8.97182222,3.85511111 Z M6.3284,3.85511111 L5.81604444,3.85511111 L5.65813333,3.34226667 L5.50022222,3.85511111 L4.94826667,3.85511111 L5.3824,4.17044444 L5.18488889,4.68328889 L5.65813333,4.36746667 L6.09177778,4.68328889 L5.93386667,4.17044444 L6.3284,3.85511111 L6.3284,3.85511111 Z M3.72506667,3.85511111 L3.21222222,3.85511111 L3.0548,3.34226667 L2.85777778,3.85511111 L2.34493333,3.85511111 L2.77906667,4.17044444 L2.58106667,4.68328889 L3.0548,4.36746667 L3.48893333,4.68328889 L3.29142222,4.17044444 L3.72506667,3.85511111 L3.72506667,3.85511111 Z M1.12222222,3.85511111 L0.609377778,3.85511111 L0.412355556,3.34226667 L0.254933333,3.85511111 L-0.257911111,3.85511111 L0.176222222,4.17044444 L-0.0217777778,4.68328889 L0.412355556,4.36746667 L0.846,4.68328889 L0.688577778,4.17044444 L1.12222222,3.85511111 L1.12222222,3.85511111 Z M-1.48013333,3.85511111 L-2.03257778,3.85511111 L-2.19097778,3.34226667 L-2.34888889,3.85511111 L-2.90084444,3.85511111 L-2.46671111,4.17044444 L-2.62462222,4.68328889 L-2.19097778,4.36746667 L-1.75684444,4.68328889 L-1.91475556,4.17044444 L-1.48013333,3.85511111 L-1.48013333,3.85511111 Z M11.5746667,1.29088889 L11.0613333,1.29088889 L10.8643111,0.817644444 L10.7059111,1.29088889 L10.1940444,1.29088889 L10.6276889,1.6072 L10.4301778,2.15866667 L10.8643111,1.80373333 L11.2984444,2.11906667 L11.1400444,1.6072 L11.5746667,1.29088889 L11.5746667,1.29088889 Z M8.97182222,1.29088889 L8.41888889,1.29088889 L8.26146667,0.817644444 L8.10306667,1.29088889 L7.55111111,1.29088889 L7.98524444,1.6072 L7.82733333,2.15866667 L8.26146667,1.80373333 L8.69511111,2.11906667 L8.5372,1.6072 L8.97182222,1.29088889 L8.97182222,1.29088889 Z M6.3284,1.29088889 L5.81604444,1.29088889 L5.65813333,0.817644444 L5.50022222,1.29088889 L4.94826667,1.29088889 L5.3824,1.6072 L5.18488889,2.15866667 L5.65813333,1.80373333 L6.09177778,2.11906667 L5.93386667,1.6072 L6.3284,1.29088889 L6.3284,1.29088889 Z M3.72506667,1.29088889 L3.21222222,1.29088889 L3.0548,0.817644444 L2.85777778,1.29088889 L2.34493333,1.29088889 L2.77906667,1.6072 L2.58106667,2.15866667 L3.0548,1.80373333 L3.48893333,2.11906667 L3.29142222,1.6072 L3.72506667,1.29088889 L3.72506667,1.29088889 Z M1.12222222,1.29088889 L0.609377778,1.29088889 L0.412355556,0.817644444 L0.254933333,1.29088889 L-0.257911111,1.29088889 L0.176222222,1.6072 L-0.0217777778,2.15866667 L0.412355556,1.80373333 L0.846,2.11906667 L0.688577778,1.6072 L1.12222222,1.29088889 L1.12222222,1.29088889 Z" id="Fill-1" fill="#3B3A6D" mask="url(#mask-2)"></path>
            <path d="M12.3236444,0.3444 L31.3267556,0.3444 L31.3267556,2.11857778 L12.3236444,2.11857778 L12.3236444,0.3444 Z M12.3236444,3.85511111 L31.3267556,3.85511111 L31.3267556,5.62977778 L12.3236444,5.62977778 L12.3236444,3.85511111 Z M12.3236444,7.36533333 L31.3267556,7.36533333 L31.3267556,9.14 L12.3236444,9.14 L12.3236444,7.36533333 Z M12.3236444,10.8750667 L31.3267556,10.8750667 L31.3267556,12.6497333 L12.3236444,12.6497333 L12.3236444,10.8750667 Z M-3.4924,14.3848 L31.3267556,14.3848 L31.3267556,16.1599556 L-3.4924,16.1599556 L-3.4924,14.3848 Z M-3.4924,17.896 L31.3267556,17.896 L31.3267556,19.6706667 L-3.4924,19.6706667 L-3.4924,17.896 Z M-3.4924,21.4062222 L31.3267556,21.4062222 L31.3267556,23.1804 L-3.4924,23.1804 L-3.4924,21.4062222 Z" id="Fill-2" fill="#CF2B38" mask="url(#mask-2)"></path>
        </g>
    </g>
</svg>